#!OML:ASF X:\2005_08_12_Meinard\c3d\meinard.ASF
:FULLY-SPECIFIED
:DEGREES
711
root 0.959356 16.9351 -3.17474 -16.0958 -68.2314 0.0434984
lowerback 38.1772 -3.27268 -0.630974
upperback 7.29901 -5.53821 -3.19609
thorax -10.8713 -2.82545 -0.732639
lowerneck -0.968902 -13.0454 -3.97484
upperneck -5.28169 -17.2971 13.6018
head 0.159633 -8.85822 4.85229
rclavicle 4.77083e-014 -7.15625e-015
rhumerus 52.9418 43.6733 66.383
rradius 32.0673
rwrist -89.9006
rhand -51.5049 -11.0785
rfingers 7.12502
rthumb -24.0329 -39.5938
lclavicle 4.77083e-014 -7.15625e-015
lhumerus 204.576 225.995 250.055
lradius 99.6431
lwrist 7.1808
lhand -15.2634 -18.0589
lfingers 7.12502
lthumb 10.9107 11.6376
rfemur -2.3951 -15.7888 10.632
rtibia 35.3327
rfoot -11.1353 5.6422
rtoes -12.3891
lfemur 13.6199 -5.2953 -7.1046
ltibia 28.8421
lfoot -13.3238 -0.85831
ltoes -31.3822
712
root 1.02076 16.9215 -3.12243 -16.1049 -68.1689 -0.120637
lowerback 38.2092 -3.23248 -0.601138
upperback 7.33188 -5.47252 -3.15531
thorax -10.8411 -2.79784 -0.732038
lowerneck -0.965671 -13.3337 -4.10693
upperneck -5.44992 -17.6744 13.741
head 0.167053 -9.05319 4.90695
rclavicle -1.35174e-014 -1.59028e-015
rhumerus 54.5851 44.4415 68.8177
rradius 32.0025
rwrist -88.763
rhand -52.1375 -11.4728
rfingers 7.12502
rthumb -24.6393 -39.9067
lclavicle -1.35174e-014 -1.59028e-015
lhumerus 203.025 225.991 250.946
lradius 98.7147
lwrist 6.32301
lhand -15.5227 -17.4535
lfingers 7.12502
lthumb 10.6606 12.2561
rfemur -2.32135 -15.5945 10.4444
rtibia 35.2579
rfoot -11.0909 5.50022
rtoes -12.5975
lfemur 13.6525 -5.37349 -7.09055
ltibia 29.0163
lfoot -13.5757 -1.08604
ltoes -31.5113
713
root 1.0843 16.9075 -3.07001 -16.0356 -68.1145 -0.351868
lowerback 38.2449 -3.18189 -0.571411
upperback 7.35097 -5.39093 -3.09691
thorax -10.8256 -2.76222 -0.718599
lowerneck -0.897476 -13.6205 -4.29786
upperneck -5.76778 -18.0158 14.3334
head 0.16513 -9.24293 4.60531
rclavicle 5.56597e-015 -5.56597e-015
rhumerus 56.2542 45.1006 71.3137
rradius 31.904
rwrist -88.0307
rhand -52.3393 -11.2759
rfingers 7.12502
rthumb -24.8327 -39.6833
lclavicle 5.56597e-015 -5.56597e-015
lhumerus 201.467 225.977 251.825
lradius 97.7435
lwrist 5.39934
lhand -15.763 -16.9021
lfingers 7.12502
lthumb 10.4287 12.8192
rfemur -2.27977 -15.3896 10.3003
rtibia 35.1946
rfoot -11.0532 5.31574
rtoes -13.0333
lfemur 13.6646 -5.47735 -7.06524
ltibia 29.1881
lfoot -13.87 -1.42974
ltoes -31.4915
714
root 1.14989 16.8921 -3.01744 -16.011 -68.0685 -0.525231
lowerback 38.2851 -3.109 -0.602117
upperback 7.37246 -5.30526 -3.03484
thorax -10.8037 -2.72376 -0.671587
lowerneck -0.859689 -13.8981 -4.39139
upperneck -5.94783 -18.3771 14.4867
head 0.162677 -9.43275 4.65083
rclavicle 2.38542e-015 -5.56597e-015
rhumerus 57.5045 45.5563 73.2216
rradius 31.7426
rwrist -87.252
rhand -52.1312 -10.4871
rfingers 7.12502
rthumb -24.6332 -38.9218
lclavicle 2.38542e-015 -5.56597e-015
lhumerus 199.933 225.914 252.619
lradius 96.7364
lwrist 4.45949
lhand -16.0237 -16.5007
lfingers 7.12502
lthumb 10.1773 13.2332
rfemur -2.26055 -15.1537 10.1429
rtibia 35.1332
rfoot -10.9935 5.11262
rtoes -13.324
lfemur 13.6623 -5.54289 -7.05388
ltibia 29.3739
lfoot -14.227 -1.91671
ltoes -31.4326
715
root 1.21715 16.8766 -2.9634 -16.0463 -68.0235 -0.640398
lowerback 38.3446 -3.01149 -0.67869
upperback 7.39111 -5.20653 -2.96475
thorax -10.7874 -2.67833 -0.596856
lowerneck -0.802068 -14.1634 -4.40722
upperneck -6.13123 -18.7213 14.6132
head 0.145202 -9.61599 4.68138
rclavicle -1.59028e-014 4.92986e-014
rhumerus 58.3863 45.8567 74.6467
rradius 31.5645
rwrist -86.5896
rhand -51.6851 -9.23708
rfingers 7.12502
rthumb -24.2056 -37.7295
lclavicle -1.59028e-014 4.92986e-014
lhumerus 198.371 225.834 253.431
lradius 95.7235
lwrist 3.53725
lhand -16.2215 -16.3064
lfingers 7.12502
lthumb 9.98646 13.4367
rfemur -2.24675 -14.8961 9.95603
rtibia 35.0759
rfoot -10.9427 4.92827
rtoes -13.7032
lfemur 13.6749 -5.63302 -7.0911
ltibia 29.5611
lfoot -14.6527 -2.50496
ltoes -31.411
716
root 1.28698 16.8606 -2.90758 -15.9906 -67.9899 -0.85404
lowerback 38.4279 -2.92274 -0.740624
upperback 7.39192 -5.11107 -2.87911
thorax -10.7993 -2.63374 -0.510125
lowerneck -0.691551 -14.4169 -4.35487
upperneck -6.32738 -19.0478 14.6935
head 0.102851 -9.79318 4.69668
rclavicle -9.14409e-015 2.22639e-014
rhumerus 58.8765 45.9765 75.4695
rradius 31.3693
rwrist -85.9485
rhand -51.1026 -7.80463
rfingers 7.12502
rthumb -23.647 -36.3703
lclavicle -9.14409e-015 2.22639e-014
lhumerus 196.798 225.722 254.187
lradius 94.696
lwrist 2.71305
lhand -16.3711 -16.2645
lfingers 7.12502
lthumb 9.84215 13.4855
rfemur -2.233 -14.6146 9.80523
rtibia 35.0121
rfoot -10.836 4.70586
rtoes -13.9197
lfemur 13.6723 -5.68587 -7.08263
ltibia 29.7626
lfoot -15.1491 -3.18951
ltoes -31.3617
